<?xml version="1.0" standalone="yes"?>
<svg xmlns="http://www.w3.org/2000/svg" width="256" height="256">
<path style="fill:#9dcb93; stroke:none;" d="M0 0L0 256L256 256L256 0L0 0z"/>
<path style="fill:#699467; stroke:none;" d="M59 38C60.506 38.683 61.3148 38.8259 63 39C61.4939 38.317 60.6852 38.1741 59 38z"/>
<path style="fill:#82b17e; stroke:none;" d="M71 38C73.8897 39.2129 76.8741 38.9983 80 39C77.1103 37.7871 74.1259 38.0017 71 38z"/>
<path style="fill:#699467; stroke:none;" d="M80.6667 38.3333C80.2222 38.7778 81.2778 38.7222 81.3333 38.6667C81.7777 38.2223 80.7222 38.2778 80.6667 38.3333z"/>
<path style="fill:#86c384; stroke:none;" d="M176 38C179.959 39.6611 184.74 39 189 39L215 39C211.041 37.3389 206.26 38 202 38L176 38z"/>
<path style="fill:#28733b; stroke:none;" d="M42 39C38.955 49.0428 41 61.5362 41 72L50 71C49.6076 63.8152 42.9917 57.2741 43.3333 50.0278C43.4483 47.5895 45.7144 47.11 46.3333 45.0833C46.6544 44.0318 44.1817 44.0361 44 44L47 42L44 39L42 39z"/>
<path style="fill:#1d3d26; stroke:none;" d="M44 41L49 40C46.6996 39.0843 45.6232 39.1207 44 41z"/>
<path style="fill:#4b6d4b; stroke:none;" d="M49 39C51.0521 39.8742 52.7472 39.9528 55 40C52.9479 39.1257 51.2528 39.0472 49 39z"/>
<path style="fill:#072915; stroke:none;" d="M55 39C55.5977 40.1954 55.4661 39.9774 57 41C55.3648 41.5451 55.5451 41.3648 55 43C60.2377 45.0841 66.2818 48.3073 71.9606 48.7369C75.6094 49.0129 79.2641 47.1089 83 47L83 39L55 39z"/>
<path style="fill:#244d27; stroke:none;" d="M64 39C65.506 39.683 66.3148 39.8259 68 40C66.4939 39.317 65.6852 39.1741 64 39z"/>
<path style="fill:#3d663d; stroke:none;" d="M68 39C69.2484 39.6848 69.5484 39.7488 71 40C69.7517 39.3152 69.4515 39.2512 68 39z"/>
<path style="fill:#82b17e; stroke:none;" d="M83 39L83 48C84.2561 45.0059 84.2561 41.9941 83 39z"/>
<path style="fill:#3e7049; stroke:none;" d="M173 41C177.017 40.0435 180.887 40.0004 185 40C181.479 38.5223 175.661 37.9553 173 41z"/>
<path style="fill:#28733b; stroke:none;" d="M185 39C188.163 40.3274 191.586 39.9996 195 40C195 48.7467 197.128 60.7685 193.95 69C189.847 79.6285 179.186 88.4793 178 100C180.831 99.7832 181.439 99.3719 183 97C184.598 101.194 185.051 103.575 184 108C191.061 101.374 195.402 90.418 200.092 82C204.73 73.6759 211.001 65.7502 214.775 57C216.439 53.143 216.317 48.153 215.941 44.0193C215.795 42.4037 215.376 39.5271 213.065 39.9213C210.269 40.398 208.85 44.8526 207.742 47C204.326 53.6247 200.765 60.2452 196 66L196 39L185 39z"/>
<path style="fill:#4aa04d; stroke:none;" d="M196 39L196 66C203.445 59.6656 208.286 47.9217 212 39L196 39z"/>
<path style="fill:#010101; stroke:none;" d="M45 40C58.6309 59.5994 69.5349 80.6333 82 101C83.7687 96.7849 83 91.5355 83 87L83 60C83 55.9318 84.2593 49.8481 81 47C81.6385 52.0524 82 56.8992 82 62C77.8071 59.4118 75.5829 55.4042 71.9815 52.1327C67.205 47.7939 61.1357 44.781 55 43C56.1863 41.8137 56.528 41.4161 57 40L45 40z"/>
<path style="fill:#1e6130; stroke:none;" d="M175 102C178.203 98.1348 180.14 93.2798 182.811 89.0147C186.829 82.599 192.813 75.4732 194.585 68C196.619 59.4179 195 48.8067 195 40C190.059 40 178.598 37.864 174.603 41.0278C170.457 44.312 174.664 51.9891 174.946 56.0147C176.008 71.1879 175 86.7867 175 102z"/>
<path style="fill:#6ba769; stroke:none;" d="M216 41L216 62C218.153 56.8692 218.153 46.1308 216 41z"/>
<path style="fill:#317e38; stroke:none;" d="M44 43C45.2483 43.6848 45.5485 43.7488 47 44C39.4216 52.8619 48.1478 61.2834 50 71C46.9221 71.0636 44.0251 71.4379 41 72C41 103.252 40 134.666 40 166C40 182.148 42.9695 199.005 40 215C43.6561 215.669 47.5578 216.45 50.8519 214.142C53.4584 212.315 54.0223 209.253 55 206.425C57.0483 200.502 59.9779 196.436 60 190C67.6926 188.743 64.0636 181.758 64 176L68 176L68 172L72 172L72 164L76 164L76 160L80 160C80 154.639 82.7688 149.925 84 145C84.5379 142.848 83.4033 141.613 83 140C81.8533 135.413 83.6601 130.079 84 126C84.33 122.04 83.0228 117.295 85 114L86 115C84.3795 110.129 83.601 104.682 81.6366 100C75.9709 86.4961 66.9224 73.6588 59.5756 61C55.8135 54.5178 52.118 44.264 44 43z"/>
<path style="fill:#6ba769; stroke:none;" d="M96 44C97.2484 44.6848 97.5483 44.7488 99 45C97.7517 44.3152 97.4515 44.2512 96 44z"/>
<path style="fill:#5d955b; stroke:none;" d="M40.3333 45.6667C40.2777 45.7223 40.2223 46.7777 40.6667 46.3333C40.7222 46.2778 40.7778 45.2222 40.3333 45.6667z"/>
<path style="fill:#448248; stroke:none;" d="M95 45L104 53C102.496 47.9555 100.38 45.4092 95 45z"/>
<path style="fill:#236532; stroke:none;" d="M83 48C86.0301 64.3214 84 82.421 84 99C86.8306 94.2746 85.9997 88.3407 86 83C86.0004 76.6156 86.9824 70.3709 87 64C89.6139 72.8433 83.0698 95.5754 96 96L96 88L104 88C104.115 74.129 113.556 63.4151 102.194 51.2701C100.847 49.8301 99.6431 47.5228 97.716 46.7963C95.1644 45.8343 93.1379 47.7661 90.8302 48.4514C88.1638 49.2433 85.6175 48.6212 83 48z"/>
<path style="fill:#07170f; stroke:none;" d="M64 47C66.632 49.0798 69.5305 50.7055 71.9815 53.054C75.4113 56.3405 77.5181 60.1457 82 62C82 56.8995 81.9335 52.0285 81 47C78.2345 47.1837 75.6243 48.4596 72.9105 48.5316C69.9705 48.6096 66.9461 47.2933 64 47z"/>
<path style="fill:#86c384; stroke:none;" d="M39 48L39 60C40.5124 56.3957 40.5124 51.6043 39 48z"/>
<path style="fill:#236532; stroke:none;" d="M40 48L40 84C41.4412 80.5655 41 76.7024 41 73C41 65.5202 42.9032 54.9187 40 48z"/>
<path style="fill:#439747; stroke:none;" d="M84 48C86.8897 49.2129 89.8741 48.9983 93 49C90.1103 47.7871 87.1259 48.0017 84 48z"/>
<path style="fill:#77c078; stroke:none;" d="M156 48C157.506 48.683 158.315 48.8259 160 49C158.494 48.317 157.685 48.1741 156 48z"/>
<path style="fill:#4aa04d; stroke:none;" d="M155 49C159.371 50.911 162.623 50.7333 164 56L168 56L168 60L164 60C165.364 62.8006 167.214 64.9369 168 68L170 67L171 111C169.521 110.014 169.797 110 168 110C160.62 129.764 149.667 148.452 139.548 167C135.66 174.126 130.693 181.255 128.105 189C126.703 193.194 127.022 197.707 126 202C141.498 205.358 149.462 181.785 155.309 171C160.396 161.616 169.473 151.548 171.62 141C173.095 133.755 172 125.376 172 118L172 76C172 67.0232 171.356 57.8546 173 49L155 49z"/>
<path style="fill:#1d3d26; stroke:none;" d="M83 50L83 82C83 88.6585 83.5506 95.4871 82 102C85.2593 99.1519 84 93.0683 84 89L84 63C84 58.7397 84.6611 53.9586 83 50z"/>
<path style="fill:#439747; stroke:none;" d="M168 110L171 111L170 67L168 68C167.51 64.6368 165.929 62.7266 164 60L168 60L168 56L164 56C163.241 50.8383 157.035 47.2638 153.085 52.3179C151.19 54.7432 150.269 58.2701 148.832 61C145.002 68.2752 141.336 75.6065 137.742 83C135.279 88.0668 130.883 94.4263 130.025 100C129.483 103.516 131.552 107.794 132.826 111C136.032 119.07 139.786 126.983 143.153 135C144.342 137.832 145.917 144.205 150.012 143.883C153.498 143.608 155.633 138.751 156.802 136C160.52 127.25 165.52 119.273 168 110z"/>
<path style="fill:#236532; stroke:none;" d="M172 51L172 130C178.872 121.792 188.66 107.468 183 97C182.315 98.2483 182.251 98.5485 182 100C180.053 99.5465 178.731 99.006 177 98L174 106C170.477 94.0826 173 78.4186 173 66C173 61.1913 173.875 55.4688 172 51z"/>
<path style="fill:#185622; stroke:none;" d="M173 51C174.416 68.9482 174 86.9712 174 105C176.189 99.7835 175 92.6192 175 87L175 51L173 51z"/>
<path style="fill:#104c1c; stroke:none;" d="M173 55L173 106C174.769 101.785 174 96.5355 174 92L174 68C174 63.7397 174.661 58.9586 173 55z"/>
<path style="fill:#185622; stroke:none;" d="M215 56C214.762 58.0948 214.816 59.8893 215 62C215.951 59.7147 215.951 58.2853 215 56z"/>
<path style="fill:#6ba769; stroke:none;" d="M150.333 57.6667C150.278 57.7222 150.222 58.7778 150.667 58.3333C150.722 58.2778 150.778 57.2222 150.333 57.6667z"/>
<path style="fill:#072915; stroke:none;" d="M214 58C204.842 71.8407 197.477 86.6738 189.204 101C184.25 109.578 176.522 118.423 173.649 128C170.658 137.969 173 151.618 173 162C177.052 154.778 178.902 147.061 183.686 140C186.767 135.452 191.761 131.692 192 126C199.338 124.113 205.494 119.012 213 117C212.613 119.09 212.616 118.711 215 119C215 123.106 215.644 127.85 214.505 131.83C211.996 140.598 205.694 148.952 201.486 157C194.425 170.506 188.015 184.386 180.958 197.83C177.757 203.927 173.259 209.018 172 216C186.625 216 201.487 215.166 216 217C216 193.266 215.029 169.577 215 146C214.984 133.033 216 120.03 216 107C216 98.0127 215.679 88.9798 215.884 80C216.042 73.1057 216.705 64.4314 214 58z"/>
<path style="fill:#6ba769; stroke:none;" d="M39 60L39 216L43 216C41.7516 215.315 41.4516 215.251 40 215L40 106L40 75C40 70.1913 40.8752 64.4688 39 60z"/>
<path style="fill:#346e36; stroke:none;" d="M108 61C108.129 65.8956 108.494 70.3245 113 73C113.034 75.3367 113.098 75.6659 115 77C114.963 80.0581 115.806 82.1857 117 85C119.08 78.6833 111.824 66.0522 108 61z"/>
<path style="fill:#4b6d4b; stroke:none;" d="M215 62L215 65C215.696 63.4463 215.696 63.5536 215 62z"/>
<path style="fill:#78a677; stroke:none;" d="M216 62L216 66C216.71 64.2405 216.71 63.7595 216 62z"/>
<path style="fill:#1e6130; stroke:none;" d="M87 64C86.9227 73.3401 86.9396 83.7313 85.8156 93C85.1955 98.1132 82.3968 102.714 83.3441 108C84.9818 117.139 92.4838 126.865 96.8364 135C106.467 152.999 115.715 171.379 126 189L128 189C132.98 180.476 137.416 171.627 142.218 163C144.067 159.677 147.691 155.159 147.477 151.17C147.222 146.421 141.905 140.428 140.001 136C135.069 124.533 130.622 112.607 125.204 101.424C121.715 94.2221 115.427 85.0854 115 77C113.557 75.5265 113.206 75.032 113 73C111.392 71.5502 110.936 70.9486 110 69C104.482 72.8348 104.017 81.8146 104 88L96 88L96 96C82.5581 94.9746 90.602 72.5839 87 64z"/>
<path style="fill:#6ba769; stroke:none;" d="M110 65L111 66L110 65z"/>
<path style="fill:#244d27; stroke:none;" d="M215.333 65.6667C215.278 65.7222 215.222 66.7778 215.667 66.3333C215.722 66.2778 215.778 65.2222 215.333 65.6667z"/>
<path style="fill:#699467; stroke:none;" d="M216 66L216 74C217.161 71.2302 217.161 68.7699 216 66z"/>
<path style="fill:#78a677; stroke:none;" d="M216 74L216 81C217.059 78.4657 217.059 76.5343 216 74z"/>
<path style="fill:#448248; stroke:none;" d="M116.333 78.6667C116.278 78.7222 116.222 79.7778 116.667 79.3333C116.722 79.2777 116.778 78.2223 116.333 78.6667z"/>
<path style="fill:#3d663d; stroke:none;" d="M215.333 81.6667C215.278 81.7222 215.222 82.7778 215.667 82.3333C215.722 82.2777 215.778 81.2223 215.333 81.6667z"/>
<path style="fill:#448248; stroke:none;" d="M118 83C118.331 88.2017 120.278 92.6003 123 97C123.933 92.4893 120.703 86.5719 118 83z"/>
<path style="fill:#78a677; stroke:none;" d="M216 83L216 100C217.883 95.5135 217.883 87.4865 216 83z"/>
<path style="fill:#317e38; stroke:none;" d="M122 96L124 101C124.893 98.4152 124.175 97.5487 122 96z"/>
<path style="fill:#439747; stroke:none;" d="M125.333 99.6667C125.278 99.7222 125.222 100.778 125.667 100.333C125.722 100.278 125.778 99.2223 125.333 99.6667z"/>
<path style="fill:#094311; stroke:none;" d="M189 100C188.014 101.479 188 101.203 188 103C189.289 101.557 189.401 101.766 189 100z"/>
<path style="fill:#82b17e; stroke:none;" d="M216 100L216 111C217.431 107.59 217.431 103.41 216 100z"/>
<path style="fill:#346e36; stroke:none;" d="M126 102C127.193 113.66 134.997 125.303 139.579 136C141.59 140.696 143.478 146.316 148 149C146.42 142.995 142.348 137.727 139.872 132C135.718 122.394 132.602 110.197 126 102z"/>
<path style="fill:#86c384; stroke:none;" d="M128 102C127.014 103.479 127 103.203 127 105C128.766 104.021 128.955 103.778 128 102z"/>
<path style="fill:#317e38; stroke:none;" d="M129 102C129.406 104.092 129.217 104.02 131 105C130.316 103.42 130.195 103.223 129 102z"/>
<path style="fill:#094311; stroke:none;" d="M129 105C129.909 113.875 135.718 122.754 139.051 131C140.706 135.094 142.389 140.352 146 143C144.369 133.526 138.702 124.828 135.086 116C133.459 112.025 132.664 107.5 129 105z"/>
<path style="fill:#35843d; stroke:none;" d="M84 114C84 119.503 82.3079 126.551 83.3418 131.83C84.4252 137.362 89.7887 144.056 92.5756 149C98.5042 159.518 103.828 170.402 109.629 181C112.58 186.392 115.539 191.865 118.954 196.981C120.098 198.696 121.559 201.364 123.956 201.364C128 201.364 127.48 191.803 128 189C122.372 184.175 119.171 175.534 115.745 169C109.411 156.925 102.669 145.059 96.2978 133C93.0111 126.779 90.1028 117.853 84 114z"/>
<path style="fill:#236532; stroke:none;" d="M135.333 116.667C135.278 116.722 135.222 117.778 135.667 117.333C135.722 117.278 135.778 116.222 135.333 116.667z"/>
<path style="fill:#1a2d1f; stroke:none;" d="M192 128C199.071 125.66 206.164 121.198 213 118C206.711 116.251 195.504 122.898 192 128z"/>
<path style="fill:#246a33; stroke:none;" d="M136.333 118.667C136.278 118.722 136.222 119.778 136.667 119.333C136.722 119.278 136.778 118.222 136.333 118.667z"/>
<path style="fill:#010101; stroke:none;" d="M173 211C179.452 203.806 182.017 194.248 186.721 186C191.982 176.777 196.569 167.405 201.486 158C205.733 149.877 211.912 141.549 214.505 132.715C215.743 128.5 215 123.358 215 119C204.069 119.256 194.302 125.799 187.443 134.001C168.783 156.314 173 183.854 173 211z"/>
<path style="fill:#346e36; stroke:none;" d="M140.333 127.667C140.278 127.722 140.222 128.778 140.667 128.333C140.722 128.278 140.778 127.222 140.333 127.667z"/>
<path style="fill:#094311; stroke:none;" d="M172 130L172 168C173.441 164.565 173 160.702 173 157C173 148.993 175.105 137.4 172 130z"/>
<path style="fill:#90bc8a; stroke:none;" d="M216 132L216 155C218.284 149.557 218.284 137.443 216 132z"/>
<path style="fill:#6ba769; stroke:none;" d="M83 134L83 141C84.0595 138.466 84.0595 136.534 83 134z"/>
<path style="fill:#1d3d26; stroke:none;" d="M215 136L215 155C217.02 150.187 217.02 140.813 215 136z"/>
<path style="fill:#3e7049; stroke:none;" d="M171 142L171 198C172.769 193.785 172 188.535 172 184L172 157C172 152.191 172.875 146.469 171 142z"/>
<path style="fill:#9dcb93; stroke:none;" d="M146 143C147.037 145.513 147.683 146.617 150 148C149.188 145.218 148.547 144.373 146 143z"/>
<path style="fill:#246a33; stroke:none;" d="M170 144C167.992 149.485 164.425 154.014 161.453 159C156.582 167.171 152.131 175.666 147.543 184C144.514 189.504 139.388 195.357 140.194 202C141.185 210.175 149.347 214.744 157 212.347C161.92 210.807 166.276 206.262 168.968 202C171.779 197.549 171 192.038 171 187L171 158C171 153.464 171.769 148.215 170 144z"/>
<path style="fill:#5d955b; stroke:none;" d="M83 145L83 150C83.8299 147.97 83.8299 147.03 83 145z"/>
<path style="fill:#77c078; stroke:none;" d="M148.667 148.333C148.222 148.778 149.278 148.722 149.333 148.667C149.778 148.222 148.722 148.278 148.667 148.333z"/>
<path style="fill:#094311; stroke:none;" d="M82 150L82 194C83.552 190.301 83 185.983 83 182L83 162C83 158.017 83.552 153.699 82 150z"/>
<path style="fill:#346e36; stroke:none;" d="M83 150L83 201C84.6611 197.041 84 192.26 84 188L84 164C84 159.465 84.7687 154.215 83 150z"/>
<path style="fill:#82b17e; stroke:none;" d="M84 150L84 201C85.6611 197.041 85 192.26 85 188L85 164C85 159.465 85.7687 154.215 84 150z"/>
<path style="fill:#28733b; stroke:none;" d="M81 152L80 160L76 160L76 164L72 164L72 172L68 172L68 176L64 176C64.0185 181.586 66.6392 188.005 60 190C59.9457 194.86 58.2835 197.056 56.4552 201.31C54.0672 206.866 53.968 212.124 48 215C57.4146 218.951 69.9325 214.603 80 217C83.9452 203.653 80.4315 186.883 81.0394 173C81.3321 166.315 83.6809 158.389 81 152z"/>
<path style="fill:#78a677; stroke:none;" d="M216 155L216 160C216.83 157.969 216.83 157.03 216 155z"/>
<path style="fill:#244d27; stroke:none;" d="M215 161L215 170C216.256 167.006 216.256 163.994 215 161z"/>
<path style="fill:#246a33; stroke:none;" d="M81 168L81 196C83.6044 189.793 83.6044 174.207 81 168z"/>
<path style="fill:#072915; stroke:none;" d="M172 168L172 198C173.328 194.834 173 191.419 173 188C173 181.846 174.395 173.707 172 168z"/>
<path style="fill:#82b17e; stroke:none;" d="M216 170L216 181C217.431 177.59 217.431 173.41 216 170z"/>
<path style="fill:#246a33; stroke:none;" d="M40 184L40 213C42.2921 207.538 41.0004 199.887 41 194C40.9998 190.581 41.3283 187.166 40 184z"/>
<path style="fill:#90bc8a; stroke:none;" d="M216 188L216 208C218.087 203.027 218.087 192.973 216 188z"/>
<path style="fill:#185622; stroke:none;" d="M82 194C80.1923 201.593 81.8077 209.407 80 217C81.0474 216.776 82.2512 216.978 82.6667 215.667C84.1495 210.987 84.3597 198.096 82 194z"/>
<path style="fill:#77c078; stroke:none;" d="M138 198C137.79 199.847 137.806 201.143 138 203C138.83 200.97 138.83 200.03 138 198z"/>
<path style="fill:#448248; stroke:none;" d="M139 198C139.021 200.85 139.19 203.271 140 206C140.668 203.213 140.172 200.613 139 198z"/>
<path style="fill:#78a677; stroke:none;" d="M171 198L172 199L171 198z"/>
<path style="fill:#394f3d; stroke:none;" d="M172.333 198.667C172.278 198.722 172.222 199.778 172.667 199.333C172.722 199.278 172.778 198.222 172.333 198.667z"/>
<path style="fill:#1a2d1f; stroke:none;" d="M172 200L172 213C173.591 209.209 173.591 203.791 172 200z"/>
<path style="fill:#5d955b; stroke:none;" d="M83 201L83 217C84.8123 212.681 84.8123 205.319 83 201z"/>
<path style="fill:#77c078; stroke:none;" d="M124 202C125.506 202.683 126.315 202.826 128 203C126.494 202.317 125.685 202.174 124 202z"/>
<path style="fill:#5d955b; stroke:none;" d="M168 202L169 203L168 202z"/>
<path style="fill:#90bc8a; stroke:none;" d="M216 211C215.779 214.006 215.545 215.365 213 217C214.506 217.683 215.315 217.826 217 218C216.981 215.457 216.985 213.332 216 211z"/>
<path style="fill:#6ba769; stroke:none;" d="M150 213C152.052 213.874 153.747 213.953 156 214C153.948 213.126 152.253 213.047 150 213z"/>
<path style="fill:#439747; stroke:none;" d="M43 216C45.8897 217.213 48.8741 216.998 52 217C49.1103 215.787 46.1259 216.002 43 216z"/>
<path style="fill:#6ba769; stroke:none;" d="M52 216C54.0521 216.874 55.7472 216.953 58 217C55.9479 216.126 54.2528 216.047 52 216z"/>
<path style="fill:#5d955b; stroke:none;" d="M58 216C63.959 218.5 72.5639 217 79 217C73.041 214.5 64.4361 216 58 216z"/>
<path style="fill:#699467; stroke:none;" d="M172 216C173.248 216.685 173.548 216.749 175 217C173.752 216.315 173.452 216.251 172 216z"/>
<path style="fill:#3d663d; stroke:none;" d="M175 216C179.974 218.087 186.638 217 192 217C187.026 214.913 180.362 216 175 216z"/>
<path style="fill:#699467; stroke:none;" d="M195 216C199.724 217.982 205.91 217 211 217C206.276 215.018 200.09 216 195 216z"/>
<path style="fill:#244d27; stroke:none;" d="M211.667 216.333C211.222 216.778 212.278 216.722 212.333 216.667C212.778 216.222 211.722 216.278 211.667 216.333z"/>
<path style="fill:#86c384; stroke:none;" d="M58 217C62.7238 218.982 68.9098 218 74 218C69.2762 216.018 63.0901 217 58 217z"/>
<path style="fill:#448248; stroke:none;" d="M80 217C81.2484 217.685 81.5484 217.749 83 218C81.7517 217.315 81.4516 217.251 80 217z"/>
</svg>
